<svg viewBox="0 0 550 550" fill="none" xmlns="http://www.w3.org/2000/svg">
<rect width="550" height="550" fill="#00AB4E"></rect>
<path d="M62.9948 191.009C62.9948 224.302 88.1187 249.834 120.591 249.834C153.064 249.834 167.571 229.615 167.571 207.352V199.387H122.024V211.64H155.113C155.317 223.69 144.287 237.784 120.596 237.784C94.4519 237.784 76.273 218.381 76.273 191.013C76.273 163.646 95.8799 144.855 122.84 144.855C140.407 144.855 154.292 149.143 167.163 158.133L167.979 157.521V146.083C158.377 139.342 142.039 132.805 122.432 132.805C89.1387 132.805 62.9948 158.541 62.9948 191.013V191.009ZM44 191.009C44 235.128 76.681 268.013 120.591 268.013C160.625 268.013 185.133 242.889 185.133 202.243V181.407H122.019V193.253H173.695V204.283C173.695 236.143 153.884 255.958 120.591 255.958C84.0296 255.958 56.8657 227.979 56.8657 191.009C56.8657 154.039 85.4622 126.671 122.432 126.671C139.999 126.671 155.929 130.96 167.979 139.333V127.283C156.337 118.91 141.019 114.622 122.432 114.622C78.1091 114.622 44 148.323 44 191.009ZM211.073 201.427V264.54H223.122V201.631C223.122 187.536 232.312 177.531 245.998 177.531C250.082 177.531 253.759 178.551 257.639 180.188C259.271 176.307 260.908 173.039 262.948 169.974C258.659 167.114 252.326 165.278 246.202 165.278C225.575 165.278 211.073 180.188 211.073 201.431V201.427ZM193.302 264.54H205.352V201.427C205.352 176.507 222.098 159.556 246.406 159.556C254.575 159.556 262.948 162.213 266.625 164.457C268.873 161.8 271.321 158.944 274.59 156.288C267.033 150.979 256.819 147.915 245.789 147.915C213.72 147.915 193.297 169.566 193.297 201.631V264.54H193.302ZM382.23 193.869V211.64C389.379 202.039 395.508 193.665 401.225 186.72C415.727 168.95 428.389 159.148 447.996 159.148C474.547 159.148 493.95 179.163 493.95 207.352C493.95 235.54 474.956 255.963 448.812 255.963C427.568 255.963 409.185 241.461 404.897 221.65L396.32 233.292C403.061 252.694 422.872 268.013 448.608 268.013C481.697 268.013 506 241.461 506 207.352C506 173.243 481.488 146.895 447.996 146.895C414.503 146.895 397.344 172.835 382.225 193.874L382.23 193.869ZM419.608 202.855H419.2L409.802 215.72C411.434 230.427 426.344 250.033 448.812 250.033C471.279 250.033 488.229 231.447 488.229 207.143C488.229 182.84 471.274 164.865 447.991 164.865C424.708 164.865 412.245 181.407 403.056 193.665C398.564 199.591 390.803 209.188 382.221 221.237V240.844C390.186 228.999 401.012 215.108 408.977 205.511C422.459 189.377 430.628 177.119 447.783 177.119C464.937 177.119 475.971 189.984 475.971 207.143C475.971 224.302 465.145 237.984 448.807 237.984C431.648 237.984 419.599 222.257 419.599 204.691V202.855H419.608ZM407.562 104V154.86C411.239 151.999 415.324 148.527 419.612 146.895V104H407.562ZM389.588 173.442C393.264 168.746 397.349 163.636 401.637 159.348V104H389.588V173.442ZM340.568 231.651L340.364 231.447C335.26 235.531 326.882 237.984 318.917 237.984C302.579 237.984 290.321 225.73 290.321 207.551C290.321 189.372 302.37 176.915 318.509 176.915C335.872 176.915 346.489 189.576 346.489 206.531V264.536H358.539V205.915C358.539 182.223 341.996 164.86 318.708 164.86C295.421 164.86 277.858 182.223 277.858 207.547C277.858 232.87 295.425 250.641 318.708 250.029C327.49 249.825 336.479 246.556 340.564 243.696V231.646L340.568 231.651ZM259.684 207.347C259.684 242.884 284.808 268.008 318.713 268.008C326.27 268.008 335.051 265.76 340.568 261.471V249.421C336.892 252.486 327.907 255.958 318.713 255.958C290.937 255.958 272.146 236.352 272.146 207.347C272.146 178.343 292.161 159.144 318.713 159.144C345.265 159.144 364.26 178.547 364.26 205.711V264.536H376.513V205.507C376.513 171.602 352.618 146.682 318.713 146.682C284.808 146.682 259.684 173.03 259.684 207.343V207.347Z" fill="white"></path>
<path d="M201.857 303.296V443.808H179.022V334.327L137.846 439.125H120.669L79.4921 336.671V443.808H56.6621V303.296H89.8373L129.259 403.996L168.682 303.296H201.857Z" fill="white"></path>
<path d="M273.642 332.568C307.207 332.568 328.482 354.233 328.482 387.993V443.808H306.627V425.466H305.652C298.821 439.515 287.501 446.542 270.718 446.737C239.887 447.127 218.807 424.102 218.807 389.947C218.807 355.793 240.861 332.568 273.642 332.568ZM273.642 425.267C292.179 425.072 306.233 411.218 306.038 388.773C305.843 368.677 293.548 353.843 273.642 353.843C253.736 353.843 241.442 367.702 241.442 389.362C241.442 411.023 254.321 425.466 273.642 425.267Z" fill="white"></path>
<path d="M370.416 382.53V443.812H347.976V380.195C347.976 348.58 363.394 332.572 393.835 332.572C403.201 332.572 408.664 334.136 413.546 336.09V357.166C409.058 355.216 401.642 354.042 395.979 354.042C379.392 354.042 370.416 363.998 370.416 382.534V382.53Z" fill="white"></path>
<path d="M493.347 421.563V442.834C488.274 444.393 479.103 445.762 472.076 445.762C452.954 445.762 442.609 435.422 442.609 416.296V357.167H424.263V336.091H442.609V315.016H465.049V336.091H491.003V357.167H465.049V412.002C465.049 419.224 469.732 423.907 476.954 423.907C480.268 423.907 487.879 422.932 493.347 421.563Z" fill="white"></path>
</svg>
