<svg xmlns="http://www.w3.org/2000/svg" viewBox="0 0 24 24" fill="none">
  <path d="M12 2C6.477 2 2 6.477 2 12s4.477 10 10 10 10-4.477 10-10S17.523 2 12 2zm5.1 6.5h-2.1v-.6c0-2.3-2-4.1-4.4-4.1S6.2 5.6 6.2 7.9v.6H4.1c-.8 0-1.5.7-1.5 1.5l1 10c.1.7.7 1.2 1.4 1.2h12.1c.7 0 1.3-.5 1.4-1.2l1-10c0-.8-.7-1.5-1.5-1.5zm-9.3-.6c0-1.4 1.1-2.5 2.5-2.5s2.5 1.1 2.5 2.5v.6H7.8v-.6zm4.8 4.7c0 .4-.3.8-.8.8s-.8-.3-.8-.8V11c0-.4.3-.8.8-.8s.8.3.8.8v2.1zm-4.3 0c0 .4-.3.8-.8.8s-.8-.3-.8-.8V11c0-.4.3-.8.8-.8s.8.3.8.8v2.1z" fill="#EE4D2D"/>
</svg>
